<?xml version="1.0" encoding="UTF-8"?>
<svg width="45px" height="61px" viewBox="0 0 45 61" version="1.1" xmlns="http://www.w3.org/2000/svg" xmlns:xlink="http://www.w3.org/1999/xlink">
    <title>Group</title>
    <g id="Page-6" stroke="none" stroke-width="1" fill="none" fill-rule="evenodd">
        <g id="Manual-de-marca-(1)" transform="translate(-456.000000, -344.000000)">
            <g id="Group-94" transform="translate(380.000000, 158.000000)">
                <g id="Group" transform="translate(76.885500, 186.550700)">
                    <path d="M43.8118,30.016 C43.8118,27.683 42.8758,25.569 41.3608,24.029 L41.3608,24.026 L21.6538,4.195 C19.3848,1.624 16.0718,-3.19744231e-14 12.3808,-3.19744231e-14 C5.5438,-3.19744231e-14 0.0008,5.559 0.0008,12.416 C0.0008,15.813 1.3618,18.89 3.5658,21.131 L3.5648,21.132 L3.5998,21.168 C3.6168,21.185 3.6338,21.202 3.6518,21.22 L20.6358,38.294 C23.0978,40.563 24.7598,43.903 24.7598,47.52 C24.7598,50.863 23.3078,54.049 21.1648,56.281 L41.2088,36.156 L41.2088,36.149 C42.8108,34.598 43.8118,32.427 43.8118,30.016" id="Fill-66" fill="#004A96"></path>
                    <path d="M12.374,29.9973 L21.124,38.7733 C25.956,43.6193 25.956,51.4763 21.124,56.3223 C16.291,61.1693 8.457,61.1693 3.624,56.3223 C-1.208,51.4763 -1.208,43.6193 3.624,38.7733 L12.374,29.9973 Z" id="Fill-68" fill="#0DA447"></path>
                </g>
            </g>
        </g>
    </g>
</svg>