<?xml version="1.0" encoding="UTF-8"?>
<svg width="106px" height="33px" viewBox="0 0 106 33" version="1.1" xmlns="http://www.w3.org/2000/svg" xmlns:xlink="http://www.w3.org/1999/xlink">
    <title>Group Copy 6</title>
    <g id="Page-6" stroke="none" stroke-width="1" fill="none" fill-rule="evenodd">
        <g id="Group-5" transform="translate(-3.000000, 0.000000)">
            <g id="Group-Copy-6" transform="translate(3.000000, 0.000000)">
                <g id="Group-22">
                    <path d="M24.2914178,16.4687239 C24.2914178,15.209306 23.7793333,14.0676045 22.9502441,13.236694 L22.9502441,13.2352164 L12.1690986,2.5284403 C10.9284507,1.14047015 9.116,0.264246269 7.09652582,0.264246269 C3.35616901,0.264246269 0.323474178,3.26478358 0.323474178,6.96718657 C0.323474178,8.80041045 1.06846009,10.4622313 2.27377465,11.671903 L2.273277,11.6728881 L2.29268545,11.6916045 C2.30214085,11.7009627 2.31159624,11.7103209 2.32105164,11.7196791 L11.612723,20.9375149 C12.9593709,22.1629478 13.8690798,23.9656343 13.8690798,25.9185448 C13.8690798,27.7232015 13.0743286,29.4436343 11.9018592,30.6488731 L22.8671362,19.7835 L22.8671362,19.7800522 C23.744,18.9422463 24.2914178,17.7700075 24.2914178,16.4687239" id="Fill-2" fill="#004A95"></path>
                    <path d="M7.0926939,16.4586269 L11.8796141,21.1963433 C14.5231446,23.8127015 14.5231446,28.0549254 11.8796141,30.670791 C9.23558592,33.2871493 4.94980188,33.2871493 2.30577371,30.670791 C-0.337756808,28.0549254 -0.337756808,23.8127015 2.30577371,21.1963433 L7.0926939,16.4586269 Z" id="Fill-4" fill="#0DA447"></path>
                    <path d="M59.4778939,6.7115597 C64.9749643,6.7115597 67.7234995,9.31806716 67.7234995,14.5325597 L67.7234995,25.5269776 C67.7234995,26.5849478 67.3801192,26.9247985 66.3489831,26.9247985 L63.3715277,26.9247985 C62.5912085,26.9247985 61.9591897,26.2987836 61.9591897,25.5269776 L61.9591897,14.7212015 C61.9591897,12.8323209 60.8902319,11.8876343 58.7144948,11.8876343 C57.7221756,11.8876343 56.8438188,12.0009179 56.0421005,12.2274851 C55.965462,12.2274851 55.9276404,12.2654104 55.9276404,12.378694 L55.9271427,25.5269776 C55.9271427,26.2987836 55.2951239,26.9247985 54.5148047,26.9247985 L51.5756685,26.9247985 C50.7953493,26.9247985 50.1633305,26.2987836 50.1633305,25.5269776 L50.1633305,10.2627537 C50.1633305,9.01614179 50.4688892,8.56300746 51.6901286,8.07145522 C53.9046826,7.16469403 56.5004385,6.7115597 59.4778939,6.7115597" id="Fill-6" fill="#004A95"></path>
                    <path d="M46.3694263,21.8867821 L45.0212854,21.0425731 C43.9269474,20.4820657 43.4740836,20.631797 42.8326094,21.5277224 C42.0781681,22.5359463 40.7225624,22.5955433 39.100215,22.5955433 C36.8358958,22.5955433 35.7042338,21.6247522 35.7042338,19.6452448 L35.7042338,18.7118866 L43.9672573,18.7118866 C46.2664122,18.7118866 48.1540085,16.849603 48.1560012,14.5740806 C48.158985,9.97673731 45.0650789,6.6870806 39.0623934,6.6870806 L38.4214169,6.6870806 C33.7738394,6.6870806 30.0066094,10.4155881 30.0066094,15.015394 L30.0066094,18.935991 C30.0066094,23.977603 32.836262,27.2263791 39.0250695,27.2263791 C43.0998488,27.2263791 45.5015202,26.4053194 46.9730789,24.0899015 C47.5389099,23.1191104 47.3502995,22.3724239 46.3694263,21.8867821 M42.4205531,14.0436179 L42.4205531,14.0436179 C42.4205531,14.3736179 42.1503277,14.6410657 41.8169005,14.6410657 L35.7042338,14.6410657 L35.7042338,14.0436179 C35.7042338,12.1389761 36.8358958,11.1681851 39.0623934,11.1681851 C41.2883934,11.1681851 42.4205531,12.1389761 42.4205531,14.0436179" id="Fill-8" fill="#004A95"></path>
                    <path d="M86.2711108,21.8867821 L84.92297,21.0425731 C83.8286319,20.4820657 83.3757681,20.631797 82.7342939,21.5277224 C81.9798526,22.5359463 80.6242469,22.5955433 79.0018995,22.5955433 C76.7375803,22.5955433 75.6059183,21.6247522 75.6059183,19.6452448 L75.6059183,18.7118866 L83.8689418,18.7118866 C86.1680967,18.7118866 88.0561906,16.849603 88.0576857,14.5740806 C88.0606695,9.97673731 84.9667634,6.6870806 78.9640779,6.6870806 L78.3231014,6.6870806 C73.6755239,6.6870806 69.9082939,10.4155881 69.9082939,15.015394 L69.9082939,18.935991 C69.9082939,23.977603 72.7379465,27.2263791 78.926754,27.2263791 C83.0015333,27.2263791 85.4032047,26.4053194 86.8742657,24.0899015 C87.4405944,23.1191104 87.251984,22.3724239 86.2711108,21.8867821 M82.3222376,14.0436179 L82.3222376,14.0436179 C82.3222376,14.3736179 82.0520122,14.6410657 81.718585,14.6410657 L75.6059183,14.6410657 L75.6059183,14.0436179 C75.6059183,12.1389761 76.7375803,11.1681851 78.9640779,11.1681851 C81.1900779,11.1681851 82.3222376,12.1389761 82.3222376,14.0436179" id="Fill-10" fill="#004A95"></path>
                    <path d="M105.586102,25.2579537 L94.455107,8.49493881 C93.879323,7.47538657 93.4836892,7.28625224 92.0096423,7.28625224 L89.5995108,7.28625224 C88.2329568,7.28625224 87.908985,7.85267015 88.592262,8.94807313 L93.8683746,16.9572224 L88.3563746,25.2579537 C87.6014357,26.3533567 87.8532479,26.9197746 89.3277925,26.9197746 L91.5746939,26.9242075 C93.0497362,26.9242075 93.7549099,26.6784313 94.3665249,25.6209537 L96.9712385,21.6668642 L99.5759521,25.6209537 C100.187567,26.6784313 100.892741,26.9242075 102.367783,26.9242075 L104.615182,26.9197746 C106.089229,26.9197746 106.341041,26.3533567 105.586102,25.2579537" id="Fill-12" fill="#004A95"></path>
                    <path d="M59.4778939,6.7115597 C64.9749643,6.7115597 67.7234995,9.31806716 67.7234995,14.5325597 L67.7234995,25.5269776 C67.7234995,26.5849478 67.3801192,26.9247985 66.3489831,26.9247985 L63.3715277,26.9247985 C62.5912085,26.9247985 61.9591897,26.2987836 61.9591897,25.5269776 L61.9591897,14.7212015 C61.9591897,12.8323209 60.8902319,11.8876343 58.7144948,11.8876343 C57.7221756,11.8876343 56.8438188,12.0009179 56.0421005,12.2274851 C55.965462,12.2274851 55.9276404,12.2654104 55.9276404,12.378694 L55.9271427,25.5269776 C55.9271427,26.2987836 55.2951239,26.9247985 54.5148047,26.9247985 L51.5756685,26.9247985 C50.7953493,26.9247985 50.1633305,26.2987836 50.1633305,25.5269776 L50.1633305,10.2627537 C50.1633305,9.01614179 50.4688892,8.56300746 51.6901286,8.07145522 C53.9046826,7.16469403 56.5004385,6.7115597 59.4778939,6.7115597" id="Fill-14" fill="#004A95"></path>
                    <path d="M46.3694263,21.8867821 L45.0212854,21.0425731 C43.9269474,20.4820657 43.4740836,20.631797 42.8326094,21.5277224 C42.0781681,22.5359463 40.7225624,22.5955433 39.100215,22.5955433 C36.8358958,22.5955433 35.7042338,21.6247522 35.7042338,19.6452448 L35.7042338,18.7118866 L43.9672573,18.7118866 C46.2664122,18.7118866 48.1540085,16.849603 48.1560012,14.5740806 C48.158985,9.97673731 45.0650789,6.6870806 39.0623934,6.6870806 L38.4214169,6.6870806 C33.7738394,6.6870806 30.0066094,10.4155881 30.0066094,15.015394 L30.0066094,18.935991 C30.0066094,23.977603 32.836262,27.2263791 39.0250695,27.2263791 C43.0998488,27.2263791 45.5015202,26.4053194 46.9730789,24.0899015 C47.5389099,23.1191104 47.3502995,22.3724239 46.3694263,21.8867821 M42.4205531,14.0436179 L42.4205531,14.0436179 C42.4205531,14.3736179 42.1503277,14.6410657 41.8169005,14.6410657 L35.7042338,14.6410657 L35.7042338,14.0436179 C35.7042338,12.1389761 36.8358958,11.1681851 39.0623934,11.1681851 C41.2883934,11.1681851 42.4205531,12.1389761 42.4205531,14.0436179" id="Fill-16" fill="#004A95"></path>
                    <path d="M86.2711108,21.8867821 L84.92297,21.0425731 C83.8286319,20.4820657 83.3757681,20.631797 82.7342939,21.5277224 C81.9798526,22.5359463 80.6242469,22.5955433 79.0018995,22.5955433 C76.7375803,22.5955433 75.6059183,21.6247522 75.6059183,19.6452448 L75.6059183,18.7118866 L83.8689418,18.7118866 C86.1680967,18.7118866 88.0561906,16.849603 88.0576857,14.5740806 C88.0606695,9.97673731 84.9667634,6.6870806 78.9640779,6.6870806 L78.3231014,6.6870806 C73.6755239,6.6870806 69.9082939,10.4155881 69.9082939,15.015394 L69.9082939,18.935991 C69.9082939,23.977603 72.7379465,27.2263791 78.926754,27.2263791 C83.0015333,27.2263791 85.4032047,26.4053194 86.8742657,24.0899015 C87.4405944,23.1191104 87.251984,22.3724239 86.2711108,21.8867821 M82.3222376,14.0436179 L82.3222376,14.0436179 C82.3222376,14.3736179 82.0520122,14.6410657 81.718585,14.6410657 L75.6059183,14.6410657 L75.6059183,14.0436179 C75.6059183,12.1389761 76.7375803,11.1681851 78.9640779,11.1681851 C81.1900779,11.1681851 82.3222376,12.1389761 82.3222376,14.0436179" id="Fill-18" fill="#004A95"></path>
                    <path d="M105.586102,25.2579537 L94.455107,8.49493881 C93.879323,7.47538657 93.4836892,7.28625224 92.0096423,7.28625224 L89.5995108,7.28625224 C88.2329568,7.28625224 87.908985,7.85267015 88.592262,8.94807313 L93.8683746,16.9572224 L88.3563746,25.2579537 C87.6014357,26.3533567 87.8532479,26.9197746 89.3277925,26.9197746 L91.5746939,26.9242075 C93.0497362,26.9242075 93.7549099,26.6784313 94.3665249,25.6209537 L96.9712385,21.6668642 L99.5759521,25.6209537 C100.187567,26.6784313 100.892741,26.9242075 102.367783,26.9242075 L104.615182,26.9197746 C106.089229,26.9197746 106.341041,26.3533567 105.586102,25.2579537" id="Fill-20" fill="#004A95"></path>
                </g>
                <path d="M103,7.59512019 C103,5.0570361 101.441884,3 99.5203849,3 C99.384781,3 99.2513928,3.01287476 99.1202203,3.03277213 C97.3706635,3.24110921 96,5.1454038 96,7.46637256 C96,7.97609616 96.0673588,8.46475196 96.1892251,8.92063564 C96.2938086,9.38061583 96.45157,9.80957954 96.6527602,10.1958225 C96.6873259,10.2724858 96.7236642,10.3473935 96.7657635,10.41879 L99.5212712,16 L102.396873,10.1852886 C102.399088,10.1800216 102.400861,10.1747547 102.403077,10.1689025 C102.779754,9.43445575 103,8.54902314 103,7.59512019" id="Fill-24" fill="#0DA447"></path>
            </g>
        </g>
    </g>
</svg>